<?xml version="1.0" standalone="no"?>
<!DOCTYPE svg PUBLIC "-//W3C//DTD SVG 20010904//EN"
 "http://www.w3.org/TR/2001/REC-SVG-20010904/DTD/svg10.dtd">
<svg version="1.0" xmlns="http://www.w3.org/2000/svg"
 width="1000.000000pt" height="376.000000pt" viewBox="0 0 1000.000000 376.000000"
 preserveAspectRatio="xMidYMid meet">

<g transform="translate(0.000000,376.000000) scale(0.100000,-0.100000)"
fill="#000000" stroke="none">
<path d="M0 1880 l0 -1880 5000 0 5000 0 0 1880 0 1880 -5000 0 -5000 0 0
-1880z m1820 660 l0 -140 -100 0 c-126 0 -135 -7 -145 -112 -4 -40 -5 -86 -3
-103 l3 -30 123 -3 122 -3 -1 -27 c0 -15 -6 -74 -12 -132 l-12 -105 -112 -3
-113 -3 0 -399 0 -400 -160 0 -160 0 0 400 0 400 -85 0 -85 0 0 135 0 134 83
3 82 3 6 145 c7 163 16 201 62 262 64 85 161 114 395 117 l112 1 0 -140z
m3298 -405 c50 20 193 37 274 32 171 -11 266 -65 309 -175 20 -52 23 -79 27
-288 4 -247 -5 -346 -39 -423 -85 -194 -350 -250 -842 -180 l-77 11 2 742 3
741 160 26 160 25 3 -259 c2 -241 4 -259 20 -252z m3291 -223 c80 126 150 232
156 234 6 3 86 3 178 2 l168 -3 -161 -254 c-88 -139 -160 -256 -160 -258 0 -3
70 -121 155 -263 85 -142 158 -265 161 -274 5 -14 -11 -16 -163 -16 -115 0
-173 4 -181 12 -6 6 -76 119 -154 250 l-143 238 -5 -247 -5 -248 -160 0 -160
0 0 755 0 755 160 25 160 25 5 -481 5 -482 144 230z m-4866 232 l87 -16 0
-135 c0 -123 -1 -134 -17 -129 -10 3 -72 13 -138 21 -193 26 -300 5 -326 -62
-6 -17 -9 -104 -7 -219 3 -187 4 -193 27 -218 50 -53 223 -58 439 -11 22 5 22
5 22 -129 l0 -134 -97 -19 c-118 -22 -323 -24 -403 -4 -172 42 -279 156 -311
328 -7 34 -9 133 -7 243 4 162 7 192 27 243 55 140 167 227 334 257 71 12 263
4 370 -16z m859 -4 c76 -23 137 -66 185 -128 53 -69 65 -126 70 -319 l5 -173
-302 0 -302 0 4 -55 c6 -72 32 -100 107 -116 76 -16 317 -1 439 26 22 5 22 5
22 -129 l0 -133 -57 -12 c-186 -35 -427 -39 -541 -7 -158 44 -262 155 -292
316 -16 84 -12 394 6 470 47 202 205 296 479 285 72 -3 133 -11 177 -25z
m2093 5 c125 -33 210 -107 257 -223 22 -54 23 -70 23 -302 0 -236 -1 -247 -24
-305 -15 -36 -44 -80 -74 -112 -85 -90 -194 -127 -372 -127 -230 0 -366 68
-438 222 l-32 67 -3 222 c-2 134 1 243 7 273 45 211 218 317 496 305 55 -2
127 -11 160 -20z m1067 -4 c132 -42 211 -119 250 -244 21 -65 23 -92 23 -277
0 -169 -3 -215 -18 -265 -52 -171 -165 -253 -381 -277 -185 -21 -361 27 -450
122 -88 94 -106 163 -106 420 0 265 23 345 125 439 55 50 115 78 210 97 96 19
260 11 347 -15z m-5121 -5 c155 -33 222 -105 248 -266 6 -37 11 -222 11 -428
l0 -363 -137 3 -138 3 -3 33 c-2 17 -5 32 -6 32 -2 0 -28 -11 -59 -25 -82 -36
-208 -59 -286 -51 -114 10 -191 61 -244 160 -19 35 -22 57 -22 156 0 131 15
174 80 228 62 50 121 64 313 69 l172 6 0 56 c0 31 -6 67 -13 81 -20 40 -65 49
-266 49 l-184 1 7 83 c4 45 9 106 13 135 l6 52 221 0 c151 0 242 -5 287 -14z
m6730 -895 c62 -62 20 -171 -66 -171 -53 0 -95 44 -95 100 0 90 99 133 161 71z"/>
<path d="M5203 1890 c-23 -5 -55 -16 -72 -25 l-31 -16 0 -254 0 -255 93 0
c114 0 165 20 190 73 24 50 25 372 2 422 -25 51 -97 73 -182 55z"/>
<path d="M4094 1886 c-31 -31 -34 -40 -34 -90 l0 -56 136 0 136 0 -4 61 c-4
54 -9 66 -36 90 -29 26 -40 29 -98 29 -62 0 -68 -2 -100 -34z"/>
<path d="M6258 1890 c-21 -4 -48 -15 -59 -26 -42 -37 -49 -74 -49 -246 0 -201
11 -235 84 -263 79 -30 164 -8 203 52 16 24 18 52 18 214 0 175 -1 190 -21
216 -35 47 -103 68 -176 53z"/>
<path d="M7303 1888 c-27 -6 -51 -20 -68 -39 -25 -30 -25 -31 -25 -229 0 -198
0 -198 26 -229 63 -75 217 -62 257 22 24 49 25 347 2 405 -25 62 -102 90 -192
70z"/>
<path d="M2143 1444 c-21 -21 -24 -32 -20 -61 13 -78 69 -98 177 -63 l70 23 0
63 0 64 -100 0 c-95 0 -102 -2 -127 -26z"/>
<path d="M9070 1247 c-77 -39 -51 -161 34 -161 50 0 81 31 81 84 0 65 -61 105
-115 77z m47 -23 c19 -5 22 -13 21 -49 0 -24 3 -48 6 -54 4 -6 3 -11 -3 -11
-6 0 -13 11 -17 25 -7 29 -34 34 -34 6 0 -11 -4 -23 -10 -26 -11 -7 -14 97 -3
108 8 8 12 8 40 1z"/>
<path d="M9090 1190 c0 -11 4 -20 9 -20 13 0 32 26 24 33 -13 14 -33 6 -33
-13z"/>
</g>
</svg>
